<?xml version="1.0" encoding="UTF-8"?>
<!DOCTYPE svg PUBLIC "-//W3C//DTD SVG 1.1//EN" "http://www.w3.org/Graphics/SVG/1.1/DTD/svg11.dtd">
<svg xmlns="http://www.w3.org/2000/svg" version="1.1" width="710px" height="709px" style="shape-rendering:geometricPrecision; text-rendering:geometricPrecision; image-rendering:optimizeQuality; fill-rule:evenodd; clip-rule:evenodd" xmlns:xlink="http://www.w3.org/1999/xlink">
<g><path style="opacity:0.983" fill="#a99c34" d="M 335.5,-0.5 C 348.167,-0.5 360.833,-0.5 373.5,-0.5C 480.657,7.65602 567.824,53.3227 635,136.5C 681.738,197.874 706.571,267.207 709.5,344.5C 709.5,351.167 709.5,357.833 709.5,364.5C 702.03,491.657 645.03,589.491 538.5,658C 489.933,686.801 437.599,703.634 381.5,708.5C 363.5,708.5 345.5,708.5 327.5,708.5C 203.145,695.273 108.978,635.273 45,528.5C 17.5285,478.93 2.36181,425.93 -0.5,369.5C -0.5,359.167 -0.5,348.833 -0.5,338.5C 9.51682,208.562 70.1835,110.395 181.5,44C 229.639,17.6707 280.972,2.83741 335.5,-0.5 Z M 77.5,206.5 C 120.456,127.822 185.123,75.9892 271.5,51C 313.933,40.5495 355.599,42.8828 396.5,58C 427.055,71.5556 450.222,93.0556 466,122.5C 482.319,150.106 488.319,179.773 484,211.5C 475.689,250.062 451.855,269.229 412.5,269C 404.5,267.168 397.5,263.501 391.5,258C 411.703,253.642 424.536,241.475 430,221.5C 436.865,170.415 415.699,136.915 366.5,121C 325.495,112.891 290.661,124.057 262,154.5C 257.943,159.558 254.276,164.892 251,170.5C 247.251,178.246 249.418,181.412 257.5,180C 281.311,170.828 301.478,175.995 318,195.5C 321.581,200.328 324.915,205.328 328,210.5C 334.587,225.261 340.587,240.261 346,255.5C 367.872,314.919 408.706,333.752 468.5,312C 486.002,303.83 500.502,291.997 512,276.5C 522.082,261.334 529.749,245.001 535,227.5C 553.724,231.513 571.557,229.013 588.5,220C 599.145,212.221 605.312,201.721 607,188.5C 607.333,181.833 607.667,175.167 608,168.5C 634.444,204.796 652.611,244.963 662.5,289C 656.296,299.038 647.296,304.204 635.5,304.5C 615.804,299.606 597.804,303.106 581.5,315C 560.154,333.008 541.654,353.508 526,376.5C 519.003,384.839 510.836,391.673 501.5,397C 494.663,398.996 487.663,399.83 480.5,399.5C 464.536,397.774 448.536,396.441 432.5,395.5C 406.599,395.447 381.933,400.947 358.5,412C 343.232,418.965 328.732,427.132 315,436.5C 322.028,424.783 328.361,412.449 334,399.5C 346.381,372.462 349.381,344.462 343,315.5C 340.491,307.648 336.325,300.815 330.5,295C 325.786,291.207 320.453,289.874 314.5,291C 312.333,291.833 310.833,293.333 310,295.5C 302.962,311.741 295.795,327.907 288.5,344C 272.697,339.209 261.53,329.042 255,313.5C 250.755,298.114 249.422,282.447 251,266.5C 252.338,253.974 253.838,241.474 255.5,229C 255.453,226.111 255.12,223.278 254.5,220.5C 250.805,218.814 247.971,219.814 246,223.5C 233.583,253.083 220.583,282.416 207,311.5C 180.988,361.845 144.155,402.345 96.5,433C 83.8268,441.005 70.8268,448.505 57.5,455.5C 41.8717,412.105 36.705,367.438 42,321.5C 44.3209,305.355 51.4876,291.855 63.5,281C 74.8926,272.303 86.8926,271.303 99.5,278C 112.007,290.616 112.841,304.116 102,318.5C 96.6528,324.189 90.4861,328.689 83.5,332C 145.899,332.272 174.066,301.439 168,239.5C 160.78,216.615 145.28,203.449 121.5,200C 106.248,198.376 91.581,200.543 77.5,206.5 Z M 666.5,323.5 C 679.973,412.636 650.64,483.803 578.5,537C 539.471,565.24 496.138,583.573 448.5,592C 422.949,596.341 397.949,594.674 373.5,587C 391.714,614.542 416.714,632.875 448.5,642C 457.783,643.187 467.117,643.853 476.5,644C 393.223,677.247 310.223,676.581 227.5,642C 213.388,635.445 199.721,628.111 186.5,620C 207.266,596.898 229.599,575.565 253.5,556C 275.99,538.251 300.99,524.918 328.5,516C 345.22,511.618 362.22,509.118 379.5,508.5C 395.189,510.06 410.856,511.727 426.5,513.5C 434.604,514.112 442.27,512.612 449.5,509C 462.566,498.939 474.733,487.772 486,475.5C 503.38,454.455 520.38,433.122 537,411.5C 543.833,404 550.667,396.5 557.5,389C 562.301,384.875 567.635,381.542 573.5,379C 583.421,377.138 593.421,375.805 603.5,375C 622.132,371.102 637.632,361.935 650,347.5C 656.261,339.964 661.761,331.964 666.5,323.5 Z M 189.5,399.5 C 192.766,416.453 199.266,432.12 209,446.5C 224.076,464.458 243.243,473.291 266.5,473C 225.151,510.994 188.984,553.16 158,599.5C 118.764,567.997 88.9302,529.33 68.5,483.5C 83.0585,482.296 97.3919,479.796 111.5,476C 127.584,470.209 141.417,461.043 153,448.5C 166.179,432.835 178.345,416.502 189.5,399.5 Z"/></g>
</svg>
